<svg width="108" height="42" viewBox="0 0 108 42" fill="none" xmlns="http://www.w3.org/2000/svg">
<path d="M27.8926 15.32V16.56C27.8926 16.9867 27.8792 17.4667 27.8526 18C27.8526 18.5333 27.8126 19.0267 27.7326 19.48C27.6526 19.96 27.5592 20.4267 27.4526 20.88C27.3459 21.3067 27.2126 21.7333 27.0526 22.16C26.9459 22.4533 26.8526 22.72 26.7726 22.96C26.6926 23.1733 26.5859 23.3467 26.4526 23.48C26.4526 23.5067 26.4392 23.52 26.4126 23.52C26.4126 23.52 26.4126 23.5333 26.4126 23.56C26.2259 23.9067 26.0526 24.1867 25.8926 24.4C25.7859 24.5867 25.6526 24.7733 25.4926 24.96C25.3326 25.12 25.1726 25.28 25.0126 25.44C24.8792 25.5733 24.7326 25.7067 24.5726 25.84C24.4392 25.9733 24.3059 26.1067 24.1726 26.24C24.1726 26.24 24.1592 26.24 24.1326 26.24C24.1326 26.24 24.1326 26.2533 24.1326 26.28C23.9992 26.4133 23.8659 26.6133 23.7326 26.88C23.7059 26.9067 23.6926 26.9333 23.6926 26.96C23.6926 26.9867 23.6792 27.0133 23.6526 27.04L23.5326 27.24C23.5059 27.2667 23.4792 27.3067 23.4526 27.36C23.4526 27.3867 23.4392 27.4 23.4126 27.4C23.3059 27.5867 23.1726 27.76 23.0126 27.92C22.8792 28.0267 22.7192 28.16 22.5326 28.32C22.3726 28.4533 22.1992 28.5467 22.0126 28.6H21.8126C21.7859 28.7067 21.7459 28.8267 21.6926 28.96C21.6659 29.0667 21.6259 29.1733 21.5726 29.28C21.5459 29.3067 21.5192 29.3467 21.4926 29.4C21.4926 29.4533 21.4659 29.5067 21.4126 29.56C21.3859 29.5867 21.3592 29.6133 21.3326 29.64C21.3059 29.6667 21.2926 29.7067 21.2926 29.76C21.2659 30.0533 21.2392 30.4933 21.2126 31.08C21.2126 31.6667 21.1992 32.28 21.1726 32.92C21.1726 33.5867 21.1726 34.2133 21.1726 34.8C21.1726 35.3867 21.1592 35.8267 21.1326 36.12C21.1326 36.1467 21.0792 36.1067 20.9726 36C20.9459 35.92 20.9192 35.84 20.8926 35.76C20.8926 35.68 20.8659 35.6 20.8126 35.52L20.4126 33.72C20.2792 33.32 20.2126 32.8267 20.2126 32.24C20.2126 31.6533 20.2126 31.0667 20.2126 30.48C20.2392 29.92 20.1992 29.44 20.0926 29.04C20.0926 29.04 20.0792 29.04 20.0526 29.04C20.0526 29.0667 20.0526 29.0933 20.0526 29.12C20.0526 29.1467 20.0392 29.1467 20.0126 29.12C19.9859 29.0933 19.9592 29.08 19.9326 29.08C19.8792 29.0533 19.8259 29.0133 19.7726 28.96C19.7459 28.9333 19.7059 28.9067 19.6526 28.88C19.6259 28.8533 19.5859 28.8267 19.5326 28.8C19.4259 28.9067 19.3459 29.0133 19.2926 29.12C19.2392 29.1733 19.2126 29.2133 19.2126 29.24L18.9726 29.52C18.6792 29.8933 18.4526 30.3067 18.2926 30.76L18.0526 31.48C17.9459 31.8 17.8259 32.1333 17.6926 32.48C17.5592 32.8533 17.3592 33.1867 17.0926 33.48C16.9326 33.64 16.8659 33.6933 16.8926 33.64C16.9459 33.6133 16.9726 33.5867 16.9726 33.56L16.8126 33.72C16.7059 33.7733 16.6526 33.8133 16.6526 33.84C16.6526 33.8933 16.5859 33.9333 16.4526 33.96C16.4259 33.96 16.3726 33.9467 16.2926 33.92C16.2392 33.8933 16.1859 33.8933 16.1326 33.92C16.1059 33.92 16.0792 33.92 16.0526 33.92C16.0259 33.9467 15.9859 33.96 15.9326 33.96L15.6526 34.16C15.5992 34.1867 15.5192 34.24 15.4126 34.32C15.3326 34.4 15.2526 34.4 15.1726 34.32C15.1459 34.2933 15.1192 34.2533 15.0926 34.2C15.0926 34.1467 15.0659 34.1067 15.0126 34.08C14.9859 34.0533 14.9592 34.0533 14.9326 34.08C14.9059 34.1333 14.8792 34.1467 14.8526 34.12C14.8259 34.0933 14.7992 34.0667 14.7726 34.04C14.7459 34.0133 14.7192 33.9867 14.6926 33.96C14.5859 33.9067 14.4792 33.8267 14.3726 33.72C14.2659 33.6133 14.1592 33.52 14.0526 33.44C13.9459 33.3333 13.8526 33.2533 13.7726 33.2C13.7192 33.3333 13.6926 33.4667 13.6926 33.6C13.6926 33.76 13.6659 33.9067 13.6126 34.04C13.5859 34.1467 13.5459 34.24 13.4926 34.32C13.4659 34.4 13.4526 34.48 13.4526 34.56C13.4259 34.8533 13.4126 35.28 13.4126 35.84C13.4126 36.4267 13.4126 37.04 13.4126 37.68C13.4126 38.32 13.3992 38.92 13.3726 39.48C13.3459 40.0667 13.3059 40.5067 13.2526 40.8C13.2259 41.04 13.1992 41.08 13.1726 40.92C13.1726 40.76 13.1592 40.4933 13.1326 40.12C13.1326 39.7467 13.1192 39.36 13.0926 38.96C13.0926 38.5867 13.0926 38.28 13.0926 38.04C13.0659 37.64 13.0392 37.1333 13.0126 36.52C13.0126 35.9067 12.9992 35.2933 12.9726 34.68C12.9726 34.0933 12.9592 33.6 12.9326 33.2C12.8259 33.28 12.7326 33.3733 12.6526 33.48C12.4926 33.6667 12.3459 33.8533 12.2126 34.04C12.0792 34.2267 11.9059 34.3867 11.6926 34.52C11.6659 34.7333 11.6392 34.9467 11.6126 35.16C11.5859 35.3733 11.5592 35.5867 11.5326 35.8C11.5059 36.2 11.4526 36.5867 11.3726 36.96C11.3192 37.3333 11.2659 37.7067 11.2126 38.08C11.1859 38.24 11.1592 38.3867 11.1326 38.52C11.1326 38.68 11.1059 38.8267 11.0526 38.96C11.0259 39.0667 10.9992 39.2267 10.9726 39.44C10.9459 39.68 10.9192 39.7467 10.8926 39.64C10.8392 39.0267 10.8126 38.36 10.8126 37.64C10.8126 36.9467 10.7859 36.3067 10.7326 35.72C10.7326 35.6933 10.7059 35.68 10.6526 35.68C10.5992 35.68 10.5726 35.6933 10.5726 35.72C10.5192 36.3067 10.4926 36.9733 10.4926 37.72C10.4926 38.4667 10.4659 39.1467 10.4126 39.76C10.4126 39.8667 10.3859 39.8267 10.3326 39.64C10.3059 39.4533 10.2792 39.32 10.2526 39.24C10.1726 38.9467 10.1059 38.6133 10.0526 38.24C9.99924 37.8667 9.94591 37.56 9.89258 37.32C9.83924 36.84 9.78591 36.36 9.73258 35.88C9.70591 35.4267 9.65258 34.9733 9.57258 34.52L9.33258 34.28C9.25258 34.1467 9.17258 34.0133 9.09258 33.88C9.03924 33.7733 8.98591 33.6667 8.93258 33.56C8.71924 33.08 8.51924 32.6 8.33258 32.12C8.17258 31.64 7.98591 31.1733 7.77258 30.72L7.17258 29.48C7.14591 29.4267 7.13258 29.3867 7.13258 29.36C7.13258 29.3333 7.11924 29.3067 7.09258 29.28C7.03924 29.3867 7.01258 29.5067 7.01258 29.64C7.03924 29.8 7.01258 29.9467 6.93258 30.08C6.90591 30.1067 6.87924 30.0667 6.85258 29.96C6.82591 29.88 6.79924 29.8267 6.77258 29.8C6.74591 29.64 6.70591 29.52 6.65258 29.44C6.65258 29.4933 6.62591 29.5467 6.57258 29.6C6.54591 29.6533 6.49258 29.72 6.41258 29.8C6.33258 29.88 6.25258 29.96 6.17258 30.04C6.11924 30.12 6.05258 30.1867 5.97258 30.24C5.83924 30.4267 5.73258 30.64 5.65258 30.88C5.59924 31.1467 5.54591 31.3867 5.49258 31.6C5.46591 31.7067 5.43924 31.8133 5.41258 31.92C5.41258 32.0267 5.38591 32.1333 5.33258 32.24C5.30591 32.3467 5.27924 32.5067 5.25258 32.72C5.22591 32.9333 5.19924 32.9867 5.17258 32.88C4.87924 32.5867 4.74591 32.4667 4.77258 32.52C4.79924 32.6 4.87924 32.7333 5.01258 32.92C5.14591 33.1333 5.22591 33.3067 5.25258 33.44C5.27924 33.6 5.14591 33.6133 4.85258 33.48C4.58591 33.4 4.45258 33.2133 4.45258 32.92C4.47924 32.6267 4.53258 32.2933 4.61258 31.92C4.71924 31.5467 4.74591 31.2267 4.69258 30.96C4.69258 30.9067 4.66591 30.8533 4.61258 30.8C4.58591 30.7467 4.57258 30.7467 4.57258 30.8C4.54591 30.9333 4.53258 31.1333 4.53258 31.4C4.53258 31.6667 4.53258 31.88 4.53258 32.04C4.53258 32.2267 4.49258 32.2533 4.41258 32.12C4.27924 31.8267 4.23924 31.52 4.29258 31.2C4.34591 30.88 4.34591 30.5733 4.29258 30.28C4.26591 30.12 4.19924 29.9867 4.09258 29.88C4.03924 29.8533 3.98591 29.8133 3.93258 29.76C3.87924 29.7067 3.82591 29.6667 3.77258 29.64C3.74591 29.64 3.71924 29.6533 3.69258 29.68C3.69258 29.7333 3.67924 29.7733 3.65258 29.8C3.57258 29.8 3.53258 29.8133 3.53258 29.84C3.50591 30.0533 3.50591 30.3333 3.53258 30.68C3.58591 31.0533 3.61258 31.36 3.61258 31.6C3.63924 31.84 3.55924 31.9067 3.37258 31.8C3.10591 31.5867 3.02591 31.2667 3.13258 30.84C3.26591 30.4133 3.30591 30.0267 3.25258 29.68C3.25258 29.6267 3.23924 29.56 3.21258 29.48C3.18591 29.4 3.14591 29.3867 3.09258 29.44C3.03924 29.52 3.02591 29.64 3.05258 29.8C3.07924 29.96 3.05258 30.0267 2.97258 30C2.86591 29.9467 2.82591 29.8533 2.85258 29.72C2.90591 29.5867 2.91924 29.4667 2.89258 29.36L2.61258 28.96C2.50591 28.9067 2.41258 28.8533 2.33258 28.8C2.03924 28.5867 1.89258 28.2933 1.89258 27.92V20.4C1.38591 19.5733 1.01258 18.8 0.772577 18.08C0.559244 17.3333 0.519244 16.7333 0.652577 16.28C0.812577 15.8267 1.22591 15.6 1.89258 15.6V3.2C1.89258 3.04 1.87924 2.86667 1.85258 2.68C1.85258 2.46667 1.86591 2.26667 1.89258 2.08C1.89258 1.81333 1.95924 1.6 2.09258 1.44C2.19924 1.28 2.34591 1.16 2.53258 1.08C2.69258 1.02667 2.82591 0.999998 2.93258 0.999998C3.06591 0.973332 3.19924 0.973332 3.33258 0.999998C3.49258 0.999998 3.63924 0.999998 3.77258 0.999998H13.7726C14.1992 0.999998 14.6259 0.999998 15.0526 0.999998C15.4792 0.999998 15.9059 1.02667 16.3326 1.08C19.2659 1.32 21.7326 2.2 23.7326 3.72C23.8926 3.82667 24.0126 3.92 24.0926 4C24.1726 4.05333 24.2392 4.10667 24.2926 4.16C24.7726 4.56 25.2392 5.05333 25.6926 5.64C26.0126 5.98666 26.2792 6.38667 26.4926 6.84C26.9992 7.77333 27.3726 8.82666 27.6126 10C27.6126 10.0267 27.6126 10.04 27.6126 10.04C27.6392 10.04 27.6526 10.0533 27.6526 10.08C27.6792 10.1867 27.7059 10.3067 27.7326 10.44C27.7592 10.5467 27.7726 10.6667 27.7726 10.8C27.8526 11.1467 27.8926 11.52 27.8926 11.92C27.9459 13.1733 27.9459 14.3067 27.8926 15.32ZM12.0526 8.92L11.8126 8.68C11.5192 8.38667 11.3992 8.25333 11.4526 8.28C11.5059 8.30667 11.5992 8.4 11.7326 8.56C11.8926 8.72 11.9459 8.85333 11.8926 8.96V20.72C11.8926 22.6667 11.6659 24.0933 11.2126 25C10.7859 25.9067 10.1992 26.4 9.45258 26.48C8.73258 26.56 7.94591 26.36 7.09258 25.88C6.23924 25.3733 5.39924 24.6933 4.57258 23.84C3.74591 22.9867 2.99924 22.08 2.33258 21.12C1.69258 20.16 1.21258 19.2533 0.892577 18.4C0.572577 17.52 0.492577 16.8267 0.652577 16.32C0.839244 15.7867 1.33258 15.5467 2.13258 15.6C2.93258 15.6267 4.11924 16.0667 5.69258 16.92C7.29258 17.7467 9.35924 19.0933 11.8926 20.96L12.2126 21.2H13.8926C14.2392 21.2 14.5726 21.1867 14.8926 21.16C15.2392 21.1067 15.5859 21.0267 15.9326 20.92C16.1459 20.84 16.3459 20.72 16.5326 20.56C16.5592 20.56 16.5726 20.56 16.5726 20.56C16.5726 20.5333 16.5859 20.52 16.6126 20.52C16.6659 20.4667 16.7192 20.4 16.7726 20.32C16.8259 20.24 16.8792 20.16 16.9326 20.08C17.0926 19.8133 17.2126 19.5333 17.2926 19.24C17.3992 18.92 17.4792 18.6267 17.5326 18.36C17.5326 18.3333 17.5326 18.3067 17.5326 18.28C17.5592 18.2267 17.5726 18.1867 17.5726 18.16C17.6259 18 17.6526 17.84 17.6526 17.68C17.6792 17.4933 17.7059 17.32 17.7326 17.16C17.7326 16.8667 17.7326 16.5467 17.7326 16.2C17.7592 15.8267 17.7726 15.4533 17.7726 15.08V14.48C17.7726 14.2133 17.7592 13.96 17.7326 13.72C17.7326 13.4533 17.7326 13.1867 17.7326 12.92C17.7326 12.84 17.7192 12.7067 17.6926 12.52C17.6926 12.3067 17.6926 12.1067 17.6926 11.92C17.6659 11.6267 17.6126 11.36 17.5326 11.12C17.4792 10.8533 17.3859 10.6 17.2526 10.36C17.2526 10.36 17.2259 10.3067 17.1726 10.2C17.1459 10.1467 17.0926 10.08 17.0126 10C17.0126 9.97333 16.9859 9.93333 16.9326 9.88L16.6926 9.64C16.5059 9.48 16.3192 9.4 16.1326 9.4C15.9459 9.4 15.7459 9.42667 15.5326 9.48C15.3192 9.50667 15.0926 9.56 14.8526 9.64C14.6126 9.69333 14.3726 9.73333 14.1326 9.76C14.0259 9.78667 13.9059 9.81333 13.7726 9.84C13.6659 9.84 13.5592 9.82667 13.4526 9.8C13.2659 9.74667 13.0792 9.66667 12.8926 9.56C12.7059 9.42667 12.5326 9.30667 12.3726 9.2C12.2392 9.06667 12.1326 8.97333 12.0526 8.92Z" fill="#00849E"/>
<path d="M48.342 20.8C48.342 21.3333 48.262 21.9467 48.102 22.64C47.702 24.2667 46.902 25.6 45.702 26.64C45.6753 26.6667 45.6486 26.6933 45.622 26.72C45.5953 26.7467 45.5686 26.7733 45.542 26.8C45.542 27.12 45.582 27.48 45.662 27.88C45.742 28.2533 45.782 28.6133 45.782 28.96C45.8086 29.3067 45.6886 29.5867 45.422 29.8C45.2086 29.9867 45.0886 29.9333 45.062 29.64C45.062 29.3467 45.102 28.96 45.182 28.48C45.262 28 45.302 27.5867 45.302 27.24C45.0886 27.72 44.822 28.1467 44.502 28.52C44.4753 28.5467 44.4353 28.5867 44.382 28.64C44.3286 28.6933 44.2753 28.7467 44.222 28.8C44.142 28.88 44.102 28.92 44.102 28.92C44.0753 28.8133 44.0486 28.72 44.022 28.64C44.022 28.5333 44.022 28.4267 44.022 28.32C43.8086 28.5867 43.5953 28.8533 43.382 29.12C43.1953 29.4133 42.9953 29.7067 42.782 30C42.4353 30.5333 42.1286 31.08 41.862 31.64C41.5953 32.2267 41.262 32.7733 40.862 33.28C40.6753 33.4933 40.4753 33.7067 40.262 33.92C40.0753 34.16 39.8886 34.3867 39.702 34.6C39.622 34.7067 39.5286 34.8133 39.422 34.92C39.342 35.0267 39.2486 35.1067 39.142 35.16C39.0886 35.2933 39.0353 35.52 38.982 35.84C38.9286 36.1867 38.862 36.44 38.782 36.6C38.782 36.6267 38.7553 36.6533 38.702 36.68C38.6753 36.7333 38.6486 36.7467 38.622 36.72C38.5686 36.64 38.5286 36.5467 38.502 36.44C38.502 36.3333 38.4886 36.2267 38.462 36.12C38.4353 35.9333 38.422 35.7467 38.422 35.56C38.422 35.4 38.3953 35.2267 38.342 35.04C38.3153 35.0133 38.2486 34.96 38.142 34.88C38.062 34.8 38.0086 34.7333 37.982 34.68C37.9553 34.6533 37.942 34.6267 37.942 34.6C37.942 34.6 37.9286 34.5867 37.902 34.56L37.702 34.24C37.6486 34.16 37.5953 34.0667 37.542 33.96C37.4886 33.88 37.4353 33.8 37.382 33.72C37.382 33.72 37.3553 33.6933 37.302 33.64C37.2486 33.6133 37.1686 33.56 37.062 33.48C36.9553 33.3733 36.862 33.24 36.782 33.08C36.7286 32.9467 36.662 32.8267 36.582 32.72C36.3686 32.4 36.1686 32.0667 35.982 31.72C35.7953 31.4 35.622 31.0667 35.462 30.72C35.4086 30.56 35.3553 30.44 35.302 30.36C35.2753 30.2267 35.222 30.1067 35.142 30C35.0886 29.8933 35.0353 29.7733 34.982 29.64L34.822 29.72C34.7953 30.2533 34.7686 30.7867 34.742 31.32C34.742 31.88 34.7153 32.4267 34.662 32.96C34.662 33.04 34.6353 33.1333 34.582 33.24C34.5553 33.3733 34.5286 33.4133 34.502 33.36C34.4486 32.7733 34.422 32.2 34.422 31.64C34.422 31.08 34.3953 30.52 34.342 29.96C34.342 29.9067 34.3286 29.8933 34.302 29.92C34.2753 29.9733 34.2353 30 34.182 30C34.1286 30.0533 34.0753 30.08 34.022 30.08L33.782 30.4L33.422 31C33.262 31.2933 33.1286 31.6 33.022 31.92C32.9153 32.24 32.7953 32.5467 32.662 32.84L32.542 33.12C32.542 33.1467 32.5286 33.16 32.502 33.16C32.502 33.1867 32.502 33.2133 32.502 33.24C32.4486 33.32 32.3953 33.4 32.342 33.48C32.2886 33.56 32.222 33.6267 32.142 33.68C32.0886 33.7333 32.0353 33.76 31.982 33.76C31.902 34.08 31.8486 34.4 31.822 34.72C31.7953 35.04 31.742 35.3467 31.662 35.64C31.6353 35.6933 31.6086 35.76 31.582 35.84C31.582 35.9467 31.5553 36 31.502 36C31.4486 36 31.4086 35.9467 31.382 35.84C31.382 35.76 31.3686 35.6933 31.342 35.64C31.262 35.3467 31.2086 35.0533 31.182 34.76C31.182 34.4667 31.1286 34.1733 31.022 33.88C30.942 33.96 30.862 34.04 30.782 34.12C30.702 34.2 30.622 34.2667 30.542 34.32C30.5153 34.4 30.4753 34.52 30.422 34.68C30.3953 34.84 30.3153 34.8267 30.182 34.64C30.1553 34.5867 30.1286 34.52 30.102 34.44C30.102 34.3867 30.0886 34.3333 30.062 34.28C30.0086 34.2267 29.9553 34.16 29.902 34.08C29.8753 34 29.8353 33.9333 29.782 33.88C29.782 33.8533 29.7686 33.84 29.742 33.84C29.742 33.84 29.742 33.8267 29.742 33.8C29.5553 33.48 29.382 33.1467 29.222 32.8C29.0886 32.48 28.8886 32.1867 28.622 31.92C28.5953 31.8667 28.5686 31.8267 28.542 31.8C28.5153 31.7733 28.4886 31.7467 28.462 31.72L28.182 31.48C28.1286 31.4267 28.062 31.3733 27.982 31.32C27.9286 31.2667 27.8753 31.2133 27.822 31.16C27.7153 31.0267 27.5953 30.88 27.462 30.72C27.3286 30.5867 27.182 30.4667 27.022 30.36C26.862 30.3067 26.7953 30.2933 26.822 30.32C26.8753 30.3467 26.9153 30.3733 26.942 30.4C26.9953 30.4267 26.9286 30.4 26.742 30.32C26.6353 30.2667 26.542 30.1867 26.462 30.08C26.4086 30 26.3153 29.9467 26.182 29.92C25.9953 29.8933 25.822 29.9067 25.662 29.96C25.502 30.0133 25.3286 30.0667 25.142 30.12C24.9286 30.1733 24.7686 30.1867 24.662 30.16C24.5553 30.16 24.502 30.1467 24.502 30.12C24.4486 30.7067 24.422 31.4267 24.422 32.28C24.422 33.1333 24.3953 33.8667 24.342 34.48C24.342 34.5333 24.3153 34.5067 24.262 34.4C24.2353 34.2933 24.2086 34.2267 24.182 34.2C24.102 33.9867 24.022 33.7733 23.942 33.56C23.8886 33.3733 23.8353 33.1867 23.782 33C23.7553 32.44 23.742 31.88 23.742 31.32C23.7686 30.76 23.7153 30.2 23.582 29.64C23.5553 29.48 23.542 29.5067 23.542 29.72C23.5686 29.9333 23.5686 30.1733 23.542 30.44C23.542 30.7333 23.4886 30.9467 23.382 31.08C23.2753 31.2133 23.2353 31.12 23.262 30.8C23.2886 30.48 23.302 30.2267 23.302 30.04L23.022 28.96C22.9153 28.9067 22.822 28.8533 22.742 28.8C22.4486 28.5867 22.302 28.2933 22.302 27.92V3.2C22.302 3.01333 22.2886 2.82667 22.262 2.64C22.262 2.45333 22.2753 2.26667 22.302 2.08C22.302 1.89333 22.3286 1.74667 22.382 1.64C22.4353 1.53333 22.5153 1.41333 22.622 1.28C22.862 1.09333 23.1153 0.999998 23.382 0.999998H28.222C28.4886 0.999998 28.9686 0.999998 29.662 0.999998C30.3553 0.999998 31.142 0.999998 32.022 0.999998C32.902 0.999998 33.7553 0.999998 34.582 0.999998C35.4086 0.999998 36.102 0.999998 36.662 0.999998C37.0353 0.999998 37.3953 1.01333 37.742 1.04C38.0886 1.04 38.422 1.05333 38.742 1.08C38.8486 1.08 38.942 1.09333 39.022 1.12C39.1286 1.12 39.2353 1.12 39.342 1.12C39.6086 1.14667 39.862 1.17333 40.102 1.2C40.342 1.2 40.582 1.22667 40.822 1.28C40.9553 1.30667 41.0753 1.33333 41.182 1.36C41.3153 1.38666 41.4353 1.41333 41.542 1.44C41.5953 1.44 41.6353 1.45333 41.662 1.48C41.7953 1.50667 41.902 1.53333 41.982 1.56C42.062 1.58666 42.142 1.62666 42.222 1.68C42.302 1.70667 42.3686 1.73333 42.422 1.76C42.502 1.78667 42.582 1.81333 42.662 1.84C43.6486 2.18667 44.5153 2.66667 45.262 3.28C45.342 3.33333 45.422 3.4 45.502 3.48C45.582 3.53333 45.6486 3.58667 45.702 3.64C45.8353 3.77333 45.942 3.89333 46.022 4C46.182 4.16 46.3553 4.4 46.542 4.72C46.702 4.90667 46.8353 5.12 46.942 5.36C47.0486 5.57333 47.142 5.8 47.222 6.04C47.462 6.76 47.622 7.56 47.702 8.44C47.7553 8.97333 47.7553 9.50667 47.702 10.04C47.6753 10.5467 47.5686 10.96 47.382 11.28C47.3553 11.36 47.3286 11.44 47.302 11.52C47.2753 11.5733 47.2353 11.64 47.182 11.72C47.102 11.9067 47.0086 12.08 46.902 12.24C46.7953 12.4 46.6753 12.56 46.542 12.72C46.4886 12.7733 46.4353 12.84 46.382 12.92C46.3286 13 46.2753 13.0667 46.222 13.12L45.862 13.48C45.782 13.5333 45.662 13.64 45.502 13.8C45.4753 13.9867 45.462 14.1733 45.462 14.36C45.462 14.52 45.4486 14.6933 45.422 14.88C45.582 14.96 45.7286 15.0667 45.862 15.2C46.022 15.3067 46.1286 15.3867 46.182 15.44L46.782 16.04C46.9953 16.2533 47.222 16.5733 47.462 17C48.0486 18.0133 48.342 19.08 48.342 20.2V20.8ZM32.622 7.92L32.302 7.88V11.52H35.702C35.8353 11.52 35.9553 11.5067 36.062 11.48C36.3553 11.3733 36.6086 11.1733 36.822 10.88C37.0353 10.56 37.1686 10.2267 37.222 9.88C37.2486 9.66667 37.2486 9.45333 37.222 9.24C37.1953 9.02667 37.1286 8.82667 37.022 8.64C36.942 8.48 36.8086 8.33333 36.622 8.2C36.622 8.17333 36.6086 8.16 36.582 8.16C36.3953 8.02667 36.1953 7.97333 35.982 8C35.7686 8 35.5553 8.01333 35.342 8.04C35.0753 8.06667 34.8086 8.08 34.542 8.08C34.2753 8.08 34.0086 8.06667 33.742 8.04C33.5553 8.04 33.3686 8.02666 33.182 8C32.9953 7.97333 32.8086 7.94667 32.622 7.92ZM32.302 22.12H35.982C36.1153 22.12 36.2886 22.0933 36.502 22.04C37.0086 21.9067 37.3686 21.5333 37.582 20.92C37.822 20.28 37.8353 19.7067 37.622 19.2L37.542 19C37.4886 18.92 37.4086 18.8267 37.302 18.72C37.0353 18.4533 36.6886 18.36 36.262 18.44C35.8353 18.4933 35.4486 18.5333 35.102 18.56C34.8353 18.5867 34.5686 18.5867 34.302 18.56C34.062 18.5067 33.8086 18.4667 33.542 18.44C33.382 18.3867 33.222 18.36 33.062 18.36C32.902 18.3333 32.7553 18.3067 32.622 18.28L32.302 18.52V22.12Z" fill="#2EACC5"/>
<path d="M70.2369 27.28C70.3169 27.44 70.3836 27.6133 70.4369 27.8C70.5169 27.96 70.5303 28.1333 70.4769 28.32C70.4503 28.4267 70.4103 28.52 70.3569 28.6C70.3036 28.6533 70.2503 28.7067 70.1969 28.76L70.0769 28.88C70.0503 28.9333 70.0236 29 69.9969 29.08C69.9969 29.16 69.9703 29.2267 69.9169 29.28C69.8903 29.36 69.8636 29.44 69.8369 29.52C69.8369 29.6 69.8103 29.68 69.7569 29.76C69.7303 29.84 69.7036 29.9467 69.6769 30.08C69.6769 30.24 69.6503 30.2933 69.5969 30.24C69.5169 30.16 69.4769 30.0533 69.4769 29.92C69.4769 29.8133 69.4769 29.7067 69.4769 29.6C69.3703 29.7333 69.2503 29.8667 69.1169 30C69.0103 30.16 68.9036 30.3067 68.7969 30.44C68.6103 30.7333 68.4236 31.04 68.2369 31.36C68.0503 31.7067 67.8769 32.04 67.7169 32.36C67.6103 32.5733 67.5036 32.8 67.3969 33.04C67.2903 33.28 67.1703 33.5067 67.0369 33.72C66.8769 33.9867 66.7836 34.1333 66.7569 34.16C66.7303 34.1867 66.6369 34.28 66.4769 34.44H66.4369C66.4103 34.4667 66.3569 34.5067 66.2769 34.56C66.2503 34.8 66.2236 35.04 66.1969 35.28C66.1969 35.5467 66.1703 35.8 66.1169 36.04C66.0903 36.0933 66.0636 36.0667 66.0369 35.96C66.0103 35.8533 65.9836 35.7733 65.9569 35.72C65.9303 35.5067 65.9169 35.28 65.9169 35.04C65.9169 34.8267 65.8903 34.6133 65.8369 34.4C65.7569 34.32 65.6769 34.2 65.5969 34.04C65.5969 34.0133 65.5836 33.9867 65.5569 33.96C65.4769 33.7733 65.3969 33.5867 65.3169 33.4C65.2636 33.24 65.1969 33.0667 65.1169 32.88C64.9836 32.6133 64.8369 32.4 64.6769 32.24C64.6503 32.2133 64.6236 32.2 64.5969 32.2C64.5969 32.2 64.5836 32.1867 64.5569 32.16C64.5303 32.1867 64.5036 32.2133 64.4769 32.24C64.4503 32.2667 64.4236 32.2933 64.3969 32.32C64.1569 32.48 64.0503 32.5867 64.0769 32.64C64.1303 32.6933 64.2103 32.7333 64.3169 32.76C64.4503 32.8133 64.5169 32.8933 64.5169 33C64.5169 33.1333 64.3703 33.3467 64.0769 33.64C63.9969 33.7467 63.9569 33.6667 63.9569 33.4C63.9569 33.16 63.9436 32.9867 63.9169 32.88C63.8903 32.72 63.8636 32.5467 63.8369 32.36C63.8369 32.2 63.8103 32.04 63.7569 31.88C63.5969 31.72 63.4769 31.5333 63.3969 31.32C63.3169 31.1867 63.2369 31.04 63.1569 30.88C63.1036 30.7467 63.0503 30.6133 62.9969 30.48L62.8769 30.16C62.8503 30.08 62.7969 30 62.7169 29.92C62.6636 29.8667 62.6103 29.8133 62.5569 29.76C62.5569 29.7333 62.5569 29.7333 62.5569 29.76C62.5036 29.76 62.3303 29.8533 62.0369 30.04C62.0369 30.0667 62.0503 30.0667 62.0769 30.04C62.1036 30.0133 62.2636 29.92 62.5569 29.76L62.5169 29.72L62.4369 29.64C62.0903 29.9867 61.9436 30.16 61.9969 30.16C62.0503 30.16 62.1569 30.0933 62.3169 29.96C62.4769 29.8533 62.5703 29.7733 62.5969 29.72C62.6236 29.6667 62.4369 29.7733 62.0369 30.04L61.9569 30.12C61.9303 30.0933 61.9036 30.04 61.8769 29.96C61.8503 29.88 61.8369 29.8667 61.8369 29.92C61.7836 30.08 61.7569 30.3067 61.7569 30.6C61.7569 30.92 61.7303 31.0133 61.6769 30.88C61.6236 30.7467 61.5969 30.5333 61.5969 30.24C61.5969 29.9733 61.5703 29.72 61.5169 29.48C61.4369 29.3467 61.3569 29.2 61.2769 29.04C61.2236 28.9067 61.1569 28.7733 61.0769 28.64C61.0236 28.64 60.9969 28.6133 60.9969 28.56C60.9436 28.5067 60.8769 28.44 60.7969 28.36C60.7436 28.28 60.7303 28.2533 60.7569 28.28C60.7303 28.2267 60.7036 28.1733 60.6769 28.12C60.6503 28.0667 60.6236 28.0267 60.5969 28C60.4903 27.7333 60.3969 27.4667 60.3169 27.2C60.2369 26.9333 60.1436 26.6667 60.0369 26.4C60.0103 26.3467 59.9969 26.3067 59.9969 26.28C59.9969 26.2533 59.9836 26.2267 59.9569 26.2C59.9569 26.1467 59.9303 26.0667 59.8769 25.96C59.8769 25.9067 59.8636 25.8667 59.8369 25.84C59.8369 25.8133 59.8236 25.7733 59.7969 25.72C59.7969 25.6667 59.7836 25.64 59.7569 25.64C59.7569 25.5867 59.7303 25.5067 59.6769 25.4C59.6769 25.3733 59.6769 25.36 59.6769 25.36C59.6769 25.36 59.6236 25.36 59.5169 25.36C59.4903 25.4133 59.4769 25.4933 59.4769 25.6C59.4769 25.7067 59.4236 25.7867 59.3169 25.84C59.2636 25.9733 59.1969 26.12 59.1169 26.28C59.0369 26.4133 58.9569 26.5467 58.8769 26.68C58.6903 27.0267 58.5036 27.4133 58.3169 27.84C58.1569 28.24 57.9836 28.6667 57.7969 29.12C57.6903 29.44 57.5703 29.76 57.4369 30.08C57.3303 30.4 57.2103 30.6933 57.0769 30.96C56.9703 31.2 56.8636 31.44 56.7569 31.68C56.6503 31.9467 56.5303 32.1867 56.3969 32.4C56.3703 32.4533 56.3169 32.52 56.2369 32.6C56.1836 32.7067 56.1036 32.76 55.9969 32.76C55.8903 32.7867 55.7836 32.7467 55.6769 32.64C55.5703 32.48 55.4769 32.3067 55.3969 32.12C55.3436 31.9333 55.2903 31.7467 55.2369 31.56C55.1036 31.2667 54.9836 30.92 54.8769 30.52C54.7703 30.12 54.6769 29.7067 54.5969 29.28C54.4903 28.8533 54.3836 28.44 54.2769 28.04C54.1969 27.64 54.0903 27.2933 53.9569 27L53.8369 26.68C53.8103 26.6267 53.7836 26.5733 53.7569 26.52C53.7569 26.4667 53.7436 26.4 53.7169 26.32C53.6636 26.2133 53.6236 26.12 53.5969 26.04C53.5703 26.0133 53.5436 25.9867 53.5169 25.96C53.4903 25.9067 53.4769 25.9067 53.4769 25.96C53.4236 26.2267 53.3969 26.52 53.3969 26.84C53.3969 27.1333 53.3703 27.4267 53.3169 27.72C53.2903 27.8267 53.2636 27.8 53.2369 27.64C53.2103 27.4533 53.1836 27.32 53.1569 27.24C52.9703 26.8667 52.9169 26.64 52.9969 26.56C53.0769 26.48 53.1569 26.4133 53.2369 26.36C53.3169 26.3067 53.2503 26.1333 53.0369 25.84C53.0103 25.84 52.9703 25.8933 52.9169 26C52.8903 26.0267 52.8769 26.0533 52.8769 26.08C52.8769 26.1067 52.8636 26.1333 52.8369 26.16C52.7836 26.24 52.7303 26.32 52.6769 26.4C52.6236 26.4533 52.5569 26.5067 52.4769 26.56C52.4236 26.6133 52.3836 26.64 52.3569 26.64C52.3303 26.9333 52.3036 27.24 52.2769 27.56C52.2769 27.8533 52.2503 28.1467 52.1969 28.44C52.1969 28.4667 52.1703 28.4933 52.1169 28.52C52.0636 28.5467 52.0369 28.5467 52.0369 28.52C51.9836 28.2 51.9569 27.88 51.9569 27.56C51.9569 27.2133 51.9303 26.8667 51.8769 26.52C51.7436 26.3867 51.6236 26.2267 51.5169 26.04C51.4103 25.8533 51.3169 25.7067 51.2369 25.6C50.9969 25.12 50.8903 24.8933 50.9169 24.92C50.9436 24.92 50.9836 25 51.0369 25.16C51.0903 25.3467 51.0903 25.4667 51.0369 25.52C50.9569 25.68 50.9169 25.7733 50.9169 25.8C50.8903 25.88 50.8636 25.96 50.8369 26.04C50.8103 26.0933 50.7836 26.16 50.7569 26.24C50.7036 26.4 50.6503 26.56 50.5969 26.72C50.5436 26.88 50.4903 27.0267 50.4369 27.16L50.1969 27.84C50.1703 27.9467 50.1303 28.0533 50.0769 28.16C50.0236 28.24 49.9703 28.32 49.9169 28.4C49.8369 28.5333 49.7303 28.64 49.5969 28.72C49.5436 28.7733 49.4903 28.8533 49.4369 28.96L49.3169 29.24C49.2636 29.4533 49.1969 29.68 49.1169 29.92C49.0369 30.16 48.9569 30.3867 48.8769 30.6C48.8769 30.6267 48.8636 30.64 48.8369 30.64C48.8369 30.6667 48.8369 30.68 48.8369 30.68C48.8103 30.8667 48.7703 31.04 48.7169 31.2C48.6636 31.3867 48.6103 31.5733 48.5569 31.76C48.5303 31.7867 48.5169 31.8267 48.5169 31.88C48.5169 31.9333 48.5036 31.9867 48.4769 32.04C48.3969 32.36 48.3169 32.68 48.2369 33C48.1836 33.3467 48.1036 33.6667 47.9969 33.96C47.9436 34.2267 47.8769 34.48 47.7969 34.72C47.7169 34.96 47.6369 35.2 47.5569 35.44C47.5303 35.5467 47.4769 35.6533 47.3969 35.76C47.3436 35.8933 47.2903 36.0267 47.2369 36.16L46.9969 36.48C46.9169 36.56 46.8103 36.6267 46.6769 36.68C46.6503 36.9733 46.6236 37.2667 46.5969 37.56C46.5969 37.88 46.5703 38.1867 46.5169 38.48C46.4903 38.5333 46.4503 38.5867 46.3969 38.64C46.3436 38.6933 46.3169 38.7067 46.3169 38.68C46.2636 38.3067 46.2369 37.9467 46.2369 37.6C46.2369 37.2533 46.2103 36.9067 46.1569 36.56C46.1036 36.5067 46.0503 36.4533 45.9969 36.4C45.9703 36.3467 45.9303 36.3067 45.8769 36.28L45.5169 35.88C45.4903 35.8267 45.4503 35.7733 45.3969 35.72C45.3703 35.6667 45.3303 35.6133 45.2769 35.56C45.1703 35.4 45.0503 35.24 44.9169 35.08C44.8103 34.92 44.7169 34.76 44.6369 34.6C44.3436 34.0933 44.0903 33.5733 43.8769 33.04C43.6636 32.5333 43.4369 32.0267 43.1969 31.52C43.0903 31.3067 42.9836 31.08 42.8769 30.84C42.7703 30.6267 42.6503 30.4133 42.5169 30.2C42.4903 30.1733 42.4636 30.1467 42.4369 30.12C42.4369 30.0933 42.4236 30.0667 42.3969 30.04C42.3436 29.9333 42.2769 29.84 42.1969 29.76C42.0903 29.6533 42.0103 29.5867 41.9569 29.56C41.9569 29.56 41.9436 29.5467 41.9169 29.52C41.9169 29.52 41.9169 29.5067 41.9169 29.48C41.8903 29.48 41.8769 29.4667 41.8769 29.44C41.8769 29.44 41.8636 29.44 41.8369 29.44C41.7569 29.5733 41.7036 29.72 41.6769 29.88C41.6769 30.04 41.6369 30.1867 41.5569 30.32C41.5569 30.4267 41.5169 30.48 41.4369 30.48C41.3303 30.5067 41.2503 30.4133 41.1969 30.2C41.1703 30.0133 41.1569 29.9467 41.1569 30C41.0503 30.56 41.0103 30.68 41.0369 30.36C41.0903 30.04 41.0636 29.5867 40.9569 29C40.9303 28.9733 40.9036 28.96 40.8769 28.96C40.8503 28.96 40.8236 28.9467 40.7969 28.92C40.7169 28.8933 40.6103 28.8133 40.4769 28.68C40.4236 28.6267 40.3703 28.5467 40.3169 28.44C40.2636 28.3333 40.2503 28.1733 40.2769 27.96C40.3036 27.8 40.3436 27.64 40.3969 27.48C40.4503 27.32 40.5036 27.1733 40.5569 27.04C40.6103 26.8533 40.6636 26.6933 40.7169 26.56C40.7969 26.4 40.8503 26.3067 40.8769 26.28L42.2369 22.4C42.3703 21.8667 42.4903 21.36 42.5969 20.88C42.7303 20.3733 42.8769 19.96 43.0369 19.64C43.0369 19.6133 43.0369 19.5867 43.0369 19.56C43.0636 19.5333 43.0769 19.5067 43.0769 19.48C43.1303 19.3733 43.1703 19.2667 43.1969 19.16C43.2503 19.0533 43.3036 18.9467 43.3569 18.84C43.4103 18.7333 43.4636 18.64 43.5169 18.56C43.5703 18.4533 43.6103 18.3733 43.6369 18.32L45.7169 12.36C45.8503 11.88 45.9703 11.4267 46.0769 11C46.2103 10.5467 46.3303 10.1867 46.4369 9.92C46.5169 9.65333 46.5836 9.4 46.6369 9.16C46.7169 8.89333 46.7969 8.65333 46.8769 8.44C46.9569 8.14667 47.0503 7.88 47.1569 7.64C47.4503 6.76 47.7169 6.2 47.9569 5.96L48.6769 3.88L49.2369 2.32C49.3169 2.02667 49.5036 1.73333 49.7969 1.44C50.0903 1.14667 50.5303 0.999998 51.1169 0.999998H59.7169C60.0369 0.999998 60.3036 1.05333 60.5169 1.16C60.5969 1.18666 60.7169 1.25333 60.8769 1.36C61.0636 1.49333 61.2103 1.65333 61.3169 1.84C61.4236 2.02667 61.5169 2.22666 61.5969 2.44C61.5969 2.49333 61.6236 2.57333 61.6769 2.68L61.7969 3.08C61.8236 3.13333 61.8369 3.2 61.8369 3.28C61.8636 3.36 61.8903 3.42667 61.9169 3.48L62.2769 4.36C62.2769 4.38667 62.2769 4.41333 62.2769 4.44C62.3036 4.44 62.3169 4.45333 62.3169 4.48C62.3703 4.58667 62.3969 4.68 62.3969 4.76C62.4769 4.94667 62.5436 5.14667 62.5969 5.36C62.6769 5.57333 62.7436 5.78667 62.7969 6C62.8236 6.05333 62.8503 6.12 62.8769 6.2C62.9036 6.28 62.9303 6.34667 62.9569 6.4L63.0369 6.68C63.1969 6.84 63.3703 7.16 63.5569 7.64C63.7703 8.09333 63.9836 8.65333 64.1969 9.32L64.3169 9.72C64.5036 10.1467 64.6636 10.5867 64.7969 11.04C64.9569 11.4933 65.0903 11.9467 65.1969 12.4C65.3303 12.6667 65.4636 13.04 65.5969 13.52C65.7303 14 65.8503 14.5067 65.9569 15.04L67.9169 20.6C68.0769 20.8667 68.2369 21.2667 68.3969 21.8C68.5836 22.3067 68.7703 22.88 68.9569 23.52C69.0103 23.6533 69.0503 23.7867 69.0769 23.92C69.1303 24.0533 69.1703 24.1867 69.1969 24.32L70.0769 26.84C70.1569 26.9733 70.2103 27.12 70.2369 27.28ZM55.3169 10.28C55.3169 10.3067 55.3036 10.3467 55.2769 10.4C55.2503 10.4533 55.2369 10.5067 55.2369 10.56C55.1836 10.7467 55.1169 10.9333 55.0369 11.12C54.9836 11.3067 54.9303 11.5067 54.8769 11.72L53.9569 14.84C53.9303 14.9467 53.9036 15.0533 53.8769 15.16C53.8503 15.24 53.8103 15.3467 53.7569 15.48C53.7303 15.64 53.6903 15.8133 53.6369 16C53.5836 16.16 53.5303 16.3333 53.4769 16.52C53.4503 16.6267 53.4236 16.7333 53.3969 16.84C53.3703 16.9467 53.3303 17.0533 53.2769 17.16C53.2503 17.1867 53.2369 17.2267 53.2369 17.28C53.2369 17.3067 53.2236 17.3467 53.1969 17.4C53.1969 17.4 53.1969 17.4133 53.1969 17.44C53.1969 17.44 53.1836 17.44 53.1569 17.44C53.1569 17.4667 53.1436 17.4933 53.1169 17.52C53.1169 17.52 53.1169 17.5333 53.1169 17.56H56.5569C56.6903 17.56 56.8236 17.56 56.9569 17.56C57.0903 17.5333 57.2103 17.5333 57.3169 17.56H57.6369L57.5169 17.12C57.4636 16.9867 57.4236 16.8667 57.3969 16.76C57.3703 16.6267 57.3303 16.5067 57.2769 16.4L57.1569 16.04C57.0503 15.7467 56.9436 15.4267 56.8369 15.08C56.7569 14.7067 56.6636 14.3467 56.5569 14C56.5303 13.9733 56.5169 13.92 56.5169 13.84L55.8369 11.72L55.5969 10.88C55.5969 10.88 55.5703 10.8267 55.5169 10.72C55.4903 10.5867 55.4636 10.4667 55.4369 10.36C55.4103 10.3333 55.3969 10.32 55.3969 10.32C55.3969 10.2933 55.3703 10.28 55.3169 10.28Z" fill="#66C5D8"/>
<path d="M62.5723 29V25.86H65.9523V29H62.5723ZM68.8441 29V14.26H78.4641L81.5241 17.32V25.94L78.4641 29H68.8441ZM72.5841 26.16H76.8441L77.9041 25.1V18.16L76.8441 17.1H72.5841V26.16ZM85.547 29L83.327 26.78V20.78L85.547 18.56H91.427L93.647 20.78V24.74H87.067V25.66L87.787 26.36H93.487V29H85.547ZM87.067 22.58H90.247V21.34L89.527 20.64H87.787L87.067 21.34V22.58ZM98.3316 29L94.6316 18.56H98.9316L100.612 26.18H101.332L103.012 18.56H107.312L103.612 29H98.3316Z" fill="#EEEEEE"/>
</svg>
